# xmcd
#
# Track frame offsets: 
#        150
#        23986
#        54766
#        92162
#        129301
#        157566
#        171655
#        189205
#        213143
#
# Disc length: 3147 seconds
#
# Revision: 0
# Processed by: cddbd v1.5.2PL0 Copyright (c) Steve Scherf et al.
# Submitted via: ExactAudioCopy v1.0b6
#
DISCID=650c4909
DTITLE=Jimmy Swaggart - His Blood Still Sets Men Free - Songs About Th
DTITLE=e Blood (2009)
DYEAR=2009
DGENRE=Southern Gospel
TTITLE0=His Blood Still Sets Men Free
TTITLE1=I See A Crimson Stream Of Blood
TTITLE2=Oh, The Blood Of Jesus
TTITLE3=Are You Washed In The Blood
TTITLE4=When I See The Blood
TTITLE5=Unworthy Of The Blood
TTITLE6=Through The Blood Into Your Presence
TTITLE7=There Is A Fountain
TTITLE8=Let The Blood Of Calvary Speak For Me
EXTD=
EXTT0=
EXTT1=
EXTT2=
EXTT3=
EXTT4=
EXTT5=
EXTT6=
EXTT7=
EXTT8=
PLAYORDER=
